Coordinates
version=1
nRows=15
nColumns=42
inDegrees=yes

Units are S.I. units (second, meters, Newtons, ...)
If the header above contains a line with 'inDegrees', this indicates whether rotational values are in degrees (yes) or radians (no).

endheader
time	pelvis_tilt	pelvis_list	pelvis_rotation	pelvis_tx	pelvis_ty	pelvis_tz	hip_flexion_r	hip_adduction_r	hip_rotation_r	knee_angle_r	knee_adduction_r	knee_angle_r_beta	ankle_angle_r	subtalar_angle_r	mtp_angle_r	hip_flexion_l	hip_adduction_l	hip_rotation_l	knee_angle_l	knee_adduction_l	knee_angle_l_beta	ankle_angle_l	subtalar_angle_l	mtp_angle_l	lumbar_extension	lumbar_bending	lumbar_rotation	arm_flex_r	arm_add_r	arm_rot_r	elbow_flex_r	pro_sup_r	wrist_flex_r	wrist_dev_r	arm_flex_l	arm_add_l	arm_rot_l	elbow_flex_l	pro_sup_l	wrist_flex_l	wrist_dev_l
      1.77000000	     14.04347356	     -4.50622874	      3.11132325	     -0.31052335	      0.87946244	      0.16273082	      6.92908816	      2.69636571	    -23.85248092	     28.00033753	     -0.05960404	      0.48869808	     14.32317420	     31.86158087	     -7.51216548	    -25.57079666	     -5.80285512	    -12.97813829	     40.59713383	     -9.46291749	      0.70855365	     11.01915089	     26.52922273	     -7.51216548	    -38.12776978	      9.23113122	     -2.31081174	      2.19193702	    -15.19290797	      2.20055071	     42.92705871	     90.00000001	      0.00000000	      0.00000000	     17.92000799	    -14.79255444	      0.95035424	     57.14744199	     90.00000001	      0.00000000	      0.00000000
      1.78000000	     14.08396107	     -4.81565754	      3.36473872	     -0.29766597	      0.88204289	      0.16403468	      5.40504023	      3.29091595	    -24.26500540	     26.95281442	      0.02944434	      0.47041535	     14.87753606	     32.47153270	     -7.51172511	    -23.76466457	     -6.49202620	    -13.43917027	     43.62306362	    -10.46719329	      0.76136609	     11.00079098	     26.40930402	     -7.51172511	    -38.21737676	      9.55668007	     -2.17169266	      2.44429785	    -15.23791538	      2.26409032	     43.14157682	     90.00000001	      0.00000000	      0.00000000	     17.33808275	    -14.64677072	      1.12087021	     56.80481073	     90.00000001	      0.00000000	      0.00000000
      1.79000000	     14.15552504	     -4.81699609	      3.70751016	     -0.28513908	      0.88474378	      0.16486349	      3.77406199	      3.45827552	    -24.57740151	     25.86072015	      0.40659793	      0.45135471	     15.47469981	     32.95921133	     -7.51148453	    -21.88083843	     -6.72838536	    -13.69376423	     46.32011403	    -11.63222237	      0.80843850	     11.18712842	     26.07173832	     -7.51148453	    -38.37124672	      9.65192669	     -2.27047819	      2.70598142	    -15.22372737	      2.29929267	     43.50811314	     90.00000001	      0.00000000	      0.00000000	     16.80972669	    -14.55291637	      1.27173644	     56.36532559	     90.00000001	      0.00000000	      0.00000000
      1.80000000	     14.20667452	     -4.87439956	      4.11776397	     -0.27270294	      0.88715324	      0.16597216	      2.29426160	      3.84025164	    -25.91973824	     24.79156703	      0.03135607	      0.43269447	     15.76193798	     34.59582452	     -7.51080912	    -19.83552412	     -7.17713240	    -14.14872574	     48.91070988	    -12.70163999	      0.85365293	     11.96231813	     26.16864690	     -7.51080912	    -38.47495448	      9.76446103	     -2.29931172	      2.90862612	    -15.18847891	      2.31663109	     43.89966943	     90.00000001	      0.00000000	      0.00000000	     16.33536504	    -14.50300144	      1.56349281	     55.89462566	     90.00000001	      0.00000000	      0.00000000
      1.81000000	     14.28473681	     -4.60730457	      4.48936701	     -0.26056328	      0.88971493	      0.16658836	      0.70432968	      3.76609380	    -26.10536032	     23.74810667	      0.40095142	      0.41448265	     16.28199921	     34.84439849	     -7.51059206	    -17.82876540	     -7.03972326	    -14.35257496	     51.00325226	    -13.77098646	      0.89017468	     12.60914339	     25.60534732	     -7.51059206	    -38.65460709	      9.58534309	     -2.47532957	      3.15347048	    -15.15915532	      2.36024973	     44.35429719	     90.00000001	      0.00000000	      0.00000000	     15.90728308	    -14.41048985	      1.71086987	     55.36741447	     90.00000001	      0.00000000	      0.00000000
      1.82000000	     14.30543279	     -4.44061348	      4.92395475	     -0.24859507	      0.89198106	      0.16739729	     -0.71769168	      3.92298127	    -26.67372850	     22.71120131	      0.39371115	      0.39638524	     16.62445939	     35.52642637	     -7.51027728	    -15.65225060	     -7.08077793	    -14.46357532	     52.98970556	    -14.58242692	      0.92484483	     13.65262986	     24.96566090	     -7.51027728	    -38.77522464	      9.50080524	     -2.59778421	      3.34494961	    -15.13101260	      2.44185574	     44.87594545	     90.00000001	      0.00000000	      0.00000000	     15.51800203	    -14.38611909	      1.95377189	     54.74832082	     90.00000001	      0.00000000	      0.00000000
      1.83000000	     14.34992415	     -3.94199119	      5.32211467	     -0.23673115	      0.89426425	      0.16776042	     -2.18892366	      3.57294806	    -26.71843314	     21.85429517	      0.83450335	      0.38142941	     17.06355634	     35.51281744	     -7.51010729	    -13.57147114	     -6.54342113	    -14.59951995	     54.38403242	    -15.49779162	      0.94918043	     14.41468590	     24.40091436	     -7.51010729	    -38.93469104	      9.11950342	     -2.90180277	      3.57646727	    -15.08156353	      2.48801091	     45.41499787	     90.00000001	      0.00000000	      0.00000000	     15.08914339	    -14.34569665	      2.07351712	     54.19330338	     90.00000001	      0.00000000	      0.00000000
      1.84000000	     14.35260649	     -3.49873816	      5.68483866	     -0.22493288	      0.89625433	      0.16832903	     -3.55338972	      3.35317343	    -26.71910932	     21.02408239	      1.14455296	      0.36693946	     17.51156128	     35.53026617	     -7.50994596	    -11.44978499	     -6.06728931	    -14.70008414	     55.53481563	    -16.15227180	      0.96926538	     15.37709191	     23.72880323	     -7.50994596	    -39.05874451	      8.74184427	     -3.10579309	      3.77311268	    -15.06712412	      2.57292930	     45.99226023	     90.00000001	      0.00000000	      0.00000000	     14.68232179	    -14.32337336	      2.19448200	     53.58964586	     90.00000001	      0.00000000	      0.00000000
      1.85000000	     14.31346923	     -3.08767512	      6.02125279	     -0.21316027	      0.89796089	      0.16888909	     -4.83488677	      3.17474924	    -26.61954760	     20.23362453	      1.43978049	      0.35314337	     17.97276069	     35.55196305	     -7.50977924	     -9.32043582	     -5.57904709	    -14.71858712	     56.38427840	    -16.57205950	      0.98409130	     16.44986538	     22.94710607	     -7.50977924	    -39.14050388	      8.38907977	     -3.25511999	      3.94400627	    -15.09542996	      2.69603091	     46.63497594	     90.00000001	      0.00000000	      0.00000000	     14.25741139	    -14.28384334	      2.31834237	     52.96072395	     90.00000001	      0.00000000	      0.00000000
      1.86000000	     14.27245035	     -2.69498728	      6.28263750	     -0.20137990	      0.89943092	      0.16957561	     -6.08013084	      3.02691415	    -26.38508832	     19.48540999	      1.72313253	      0.34008456	     18.44692507	     35.51729403	     -7.50960413	     -7.26584280	     -5.07787527	    -14.66538602	     56.91221020	    -16.72766753	      0.99330545	     17.55221372	     22.07500079	     -7.50960413	    -39.22309334	      8.01151900	     -3.31442146	      4.09556051	    -15.17820685	      2.85833810	     47.33211257	     90.00000001	      0.00000000	      0.00000000	     13.81240782	    -14.24374408	      2.41939292	     52.33413803	     90.00000001	      0.00000000	      0.00000000
      1.87000000	     14.24121940	     -2.32895145	      6.46380711	     -0.18959317	      0.90068080	      0.17028946	     -7.31506204	      2.90918201	    -25.98857074	     18.75749833	      2.00917550	      0.32738011	     18.92270358	     35.37106167	     -7.50943046	     -5.31419283	     -4.57179339	    -14.58572345	     57.09470171	    -16.66557135	      0.99649053	     18.61230998	     21.17077574	     -7.50943046	    -39.31895923	      7.62693333	     -3.29126048	      4.24270794	    -15.30043771	      3.04561594	     48.07784511	     90.00000001	      0.00000000	      0.00000000	     13.32825370	    -14.18770401	      2.49318102	     51.73701564	     90.00000001	      0.00000000	      0.00000000
      1.88000000	     14.23749020	     -2.00086764	      6.56900762	     -0.17768829	      0.90169685	      0.17111485	     -8.58820918	      2.84886243	    -25.41431296	     17.98724117	      2.29796394	      0.31393658	     19.41437715	     35.18440212	     -7.50925897	     -3.49648064	     -4.09039527	    -14.50340303	     56.94253372	    -16.43141511	      0.99383470	     19.66102722	     20.22876819	     -7.50925897	    -39.42626442	      7.23851301	     -3.17727240	      4.35706909	    -15.48111029	      3.25672837	     48.87723995	     90.00000001	      0.00000000	      0.00000000	     12.81877644	    -14.13580963	      2.53625879	     51.15332951	     90.00000001	      0.00000000	      0.00000000
      1.89000000	     14.30859150	     -1.73574279	      6.55077583	     -0.16563009	      0.90255548	      0.17210725	     -9.95778686	      2.86114679	    -24.64086905	     17.15890864	      2.59249092	      0.29947945	     19.87033587	     34.89300426	     -7.50906947	     -1.90384090	     -3.70138886	    -14.43313396	     56.42548625	    -15.96942245	      0.98481052	     20.62756885	     19.21409077	     -7.50906947	    -39.60754665	      6.85273177	     -2.91438349	      4.44871600	    -15.72444445	      3.51374311	     49.74226328	     90.00000001	      0.00000000	      0.00000000	     12.24854046	    -14.06073123	      2.56384576	     50.58176148	     90.00000001	      0.00000000	      0.00000000
      1.90000000	     14.57798103	     -1.47955937	      6.39771804	     -0.15338668	      0.90351478	      0.17315165	    -11.65746045	      2.91878321	    -23.42106647	     16.04711777	      2.96823977	      0.28007504	     20.02292288	     34.19222462	     -7.50870220	     -0.72111024	     -3.32682414	    -14.34646110	     55.46078531	    -15.28062269	      0.96797331	     21.25644350	     17.99682515	     -7.50870220	    -39.99170542	      6.44042568	     -2.54451501	      4.54085602	    -16.08629483	      3.92543397	     50.71150981	     90.00000001	      0.00000000	      0.00000000	     11.62905577	    -13.98813237	      2.59235135	     50.09946310	     90.00000001	      0.00000000	      0.00000000
      1.91000000	     14.59623953	     -1.32331051	      6.26198436	     -0.14126605	      0.90369664	      0.17421785	    -12.93336662	      3.02782417	    -22.47141321	     15.24354426	      3.19378994	      0.26605004	     20.56244072	     33.77074737	     -7.50851285	      0.79125172	     -3.07576324	    -14.52934592	     54.39337258	    -14.76913813	      0.94934344	     22.10071023	     17.24479819	     -7.50851285	    -40.09125962	      6.11069578	     -2.16588734	      4.66618674	    -16.36194144	      4.04898742	     51.46122168	     90.00000001	      0.00000000	      0.00000000	     10.97913170	    -13.90875019	      2.59268790	     49.55796584	     90.00000001	      0.00000000	      0.00000000
